<?xml version="1.0" encoding="iso-8859-1"?>
<!-- Generator: Adobe Illustrator 19.0.0, SVG Export Plug-In . SVG Version: 6.00 Build 0)  -->
<svg xmlns="http://www.w3.org/2000/svg" xmlns:xlink="http://www.w3.org/1999/xlink" version="1.1" id="Capa_1" x="0px" y="0px" viewBox="0 0 512.768 512.768" style="enable-background:new 0 0 512.768 512.768;" xml:space="preserve" width="512px" height="512px">
<g transform="translate(1 1)">
	<g>
		<path d="M503.233,4.244c-5.695-4.828-13.841-6.8-22.394-2.912L11.506,214.665c-16.337,7.426-16.764,30.477-0.713,38.502    l145.331,72.666l-7.767,163.239c-0.858,18.029,19.667,28.91,34.107,18.082l78.318-58.726l40.67,54.494    c10.136,13.582,31.299,10.491,37.128-5.422L510.358,28.573C514.039,18.522,510.111,9.419,503.233,4.244z M391.393,88.856    L232.58,247.669l-45.937,45.72L69.87,235.003L391.393,88.856z M235.262,414.236l-42.132,31.592l3.938-82.764l-19.953-26.733    l-8.549-4.267l0.004-0.009l8.54,4.27l0.004,0.006l0.014,0.007l19.94,26.718l0,0.008L235.262,414.236z M312.074,445.819    l-92.868-124.435l43.527-43.527l174.484-173.664L312.074,445.819z" fill="#FFFFFF"/>
	</g>
</g>
<g>
</g>
<g>
</g>
<g>
</g>
<g>
</g>
<g>
</g>
<g>
</g>
<g>
</g>
<g>
</g>
<g>
</g>
<g>
</g>
<g>
</g>
<g>
</g>
<g>
</g>
<g>
</g>
<g>
</g>
</svg>
